<svg xmlns="http://www.w3.org/2000/svg" xmlns:xlink="http://www.w3.org/1999/xlink" width="150" zoomAndPan="magnify" viewBox="0 0 112.5 112.499997" height="150" preserveAspectRatio="xMidYMid meet" version="1.0"><defs><g/><clipPath id="f1d87e2b9b"><path d="M 0 0 L 112.003906 0 L 112.003906 112.003906 L 0 112.003906 Z M 0 0 " clip-rule="nonzero"/></clipPath><clipPath id="3797f053f6"><path d="M 45.519531 32.140625 L 54 32.140625 L 54 55 L 45.519531 55 Z M 45.519531 32.140625 " clip-rule="nonzero"/></clipPath><clipPath id="a86d037743"><path d="M 54 36 L 63 36 L 63 58.277344 L 54 58.277344 Z M 54 36 " clip-rule="nonzero"/></clipPath><clipPath id="9783fa099a"><path d="M 65 32.140625 L 66.425781 32.140625 L 66.425781 35 L 65 35 Z M 65 32.140625 " clip-rule="nonzero"/></clipPath></defs><g clip-path="url(#f1d87e2b9b)"><path fill="#ffffff" d="M 0 0 L 112.003906 0 L 112.003906 112.003906 L 0 112.003906 Z M 0 0 " fill-opacity="1" fill-rule="nonzero"/><path fill="#ffffff" d="M 0 0 L 112.003906 0 L 112.003906 112.003906 L 0 112.003906 Z M 0 0 " fill-opacity="1" fill-rule="nonzero"/></g><g clip-path="url(#3797f053f6)"><path fill="#393536" d="M 45.523438 44.441406 L 45.523438 41.710938 C 46.082031 41.679688 46.503906 41.597656 46.785156 41.460938 C 47.070312 41.324219 47.3125 41.09375 47.519531 40.773438 C 47.726562 40.449219 47.867188 40.046875 47.945312 39.558594 C 48.003906 39.195312 48.035156 38.5625 48.035156 37.660156 C 48.035156 36.1875 48.105469 35.164062 48.242188 34.582031 C 48.378906 34.003906 48.628906 33.535156 48.988281 33.183594 C 49.347656 32.832031 49.871094 32.550781 50.558594 32.347656 C 51.027344 32.210938 51.757812 32.140625 52.761719 32.140625 L 53.367188 32.140625 L 53.367188 34.863281 C 52.519531 34.863281 51.976562 34.910156 51.734375 35.003906 C 51.492188 35.097656 51.316406 35.242188 51.203125 35.4375 C 51.085938 35.628906 51.03125 35.960938 51.03125 36.433594 C 51.03125 36.910156 50.996094 37.816406 50.925781 39.152344 C 50.886719 39.902344 50.789062 40.511719 50.628906 40.976562 C 50.46875 41.445312 50.261719 41.828125 50.015625 42.132812 C 49.765625 42.433594 49.386719 42.75 48.875 43.074219 C 49.324219 43.335938 49.691406 43.636719 49.980469 43.980469 C 50.265625 44.324219 50.488281 44.746094 50.640625 45.238281 C 50.792969 45.730469 50.890625 46.390625 50.9375 47.21875 C 50.992188 48.476562 51.019531 49.28125 51.019531 49.628906 C 51.019531 50.128906 51.078125 50.480469 51.203125 50.675781 C 51.324219 50.875 51.507812 51.023438 51.757812 51.125 C 52.007812 51.226562 52.542969 51.277344 53.367188 51.277344 L 53.367188 54.007812 L 52.761719 54.007812 C 51.730469 54.007812 50.9375 53.929688 50.386719 53.765625 C 49.835938 53.601562 49.371094 53.332031 48.992188 52.953125 C 48.617188 52.570312 48.359375 52.105469 48.230469 51.546875 C 48.101562 50.988281 48.035156 50.109375 48.035156 48.914062 C 48.035156 47.515625 47.976562 46.609375 47.851562 46.191406 C 47.683594 45.585938 47.429688 45.152344 47.089844 44.890625 C 46.75 44.628906 46.226562 44.480469 45.523438 44.441406 " fill-opacity="1" fill-rule="nonzero"/></g><path fill="#eeb30d" d="M 62.921875 37.808594 L 61.128906 37.808594 L 61.128906 36.027344 L 62.921875 36.027344 L 62.921875 37.808594 " fill-opacity="1" fill-rule="nonzero"/><path fill="#eeb30d" d="M 62.5 41.367188 L 61.128906 41.367188 L 61.128906 40.007812 L 62.5 40.007812 L 62.5 41.367188 " fill-opacity="1" fill-rule="nonzero"/><g clip-path="url(#a86d037743)"><path fill="#eeb30d" d="M 57.277344 39.167969 L 57.277344 37.808594 L 58.648438 37.808594 L 58.648438 39.167969 Z M 60.765625 45.527344 C 60.421875 45.265625 60.164062 44.832031 59.996094 44.226562 C 59.90625 43.882812 59.851562 43.226562 59.832031 42.257812 L 58.648438 42.257812 L 58.648438 40.476562 L 59.804688 40.476562 C 59.777344 39.792969 59.71875 39.257812 59.625 38.871094 C 59.492188 38.316406 59.238281 37.84375 58.863281 37.460938 C 58.488281 37.078125 58.023438 36.808594 57.476562 36.648438 C 56.925781 36.488281 56.132812 36.410156 55.101562 36.410156 L 54.492188 36.410156 L 54.492188 39.128906 C 55.355469 39.128906 55.914062 39.179688 56.160156 39.28125 C 56.410156 39.386719 56.582031 39.53125 56.679688 39.71875 C 56.773438 39.910156 56.824219 40.289062 56.832031 40.859375 C 56.871094 42.664062 56.933594 43.832031 57.015625 44.363281 C 57.144531 45.136719 57.390625 45.773438 57.75 46.273438 C 58.007812 46.621094 58.421875 46.980469 58.988281 47.34375 C 58.550781 47.59375 58.195312 47.882812 57.917969 48.214844 C 57.636719 48.542969 57.414062 48.945312 57.246094 49.417969 C 57.078125 49.894531 56.972656 50.523438 56.9375 51.3125 C 56.875 52.617188 56.84375 53.5 56.839844 53.964844 C 56.835938 54.425781 56.773438 54.753906 56.65625 54.949219 C 56.535156 55.140625 56.351562 55.289062 56.097656 55.394531 C 55.847656 55.496094 55.3125 55.546875 54.492188 55.546875 L 54.492188 58.277344 L 55.101562 58.277344 C 56.101562 58.277344 56.835938 58.207031 57.300781 58.070312 C 58 57.867188 58.527344 57.589844 58.886719 57.234375 C 59.246094 56.882812 59.492188 56.414062 59.625 55.832031 C 59.757812 55.246094 59.824219 54.21875 59.824219 52.746094 C 59.824219 51.851562 59.855469 51.222656 59.917969 50.859375 C 60 50.375 60.144531 49.96875 60.347656 49.648438 C 60.550781 49.324219 60.792969 49.09375 61.074219 48.957031 C 61.359375 48.820312 61.777344 48.738281 62.335938 48.707031 L 62.335938 45.976562 C 61.632812 45.941406 61.109375 45.789062 60.765625 45.527344 " fill-opacity="1" fill-rule="nonzero"/></g><g clip-path="url(#9783fa099a)"><path fill="#eeb30d" d="M 66.421875 34.347656 L 65.050781 34.347656 L 65.050781 32.988281 L 66.421875 32.988281 L 66.421875 34.347656 " fill-opacity="1" fill-rule="nonzero"/></g><path fill="#eeb30d" d="M 59.546875 36.027344 L 56.988281 36.027344 L 56.988281 33.488281 L 59.546875 33.488281 L 59.546875 36.027344 " fill-opacity="1" fill-rule="nonzero"/><g fill="#393536" fill-opacity="1"><g transform="translate(35.479039, 70.857781)"><g><path d="M 2.046875 -3.828125 L 2.046875 0 L 0.71875 0 L 0.71875 -6.546875 L 1.453125 -6.546875 L 5.046875 -2.609375 L 5.046875 -6.4375 L 6.375 -6.4375 L 6.375 0.109375 L 5.640625 0.109375 Z M 2.046875 -3.828125 "/></g></g></g><g fill="#393536" fill-opacity="1"><g transform="translate(44.361669, 70.857781)"><g><path d="M 2.640625 -6.546875 L 3.53125 -6.546875 L 6.0625 0 L 4.578125 0 L 4.1875 -1.078125 L 1.96875 -1.078125 L 1.578125 0 L 0.09375 0 Z M 3.75 -2.296875 L 3.078125 -4.1875 L 2.40625 -2.296875 Z M 3.75 -2.296875 "/></g></g></g><g fill="#393536" fill-opacity="1"><g transform="translate(52.312919, 70.857781)"><g><path d="M 2.046875 -3.828125 L 2.046875 0 L 0.71875 0 L 0.71875 -6.546875 L 1.453125 -6.546875 L 5.046875 -2.609375 L 5.046875 -6.4375 L 6.375 -6.4375 L 6.375 0.109375 L 5.640625 0.109375 Z M 2.046875 -3.828125 "/></g></g></g><g fill="#393536" fill-opacity="1"><g transform="translate(61.19555, 70.857781)"><g><path d="M 0.71875 -6.4375 L 3.265625 -6.4375 C 3.742188 -6.4375 4.1875 -6.351562 4.59375 -6.1875 C 5 -6.03125 5.351562 -5.804688 5.65625 -5.515625 C 5.957031 -5.234375 6.191406 -4.894531 6.359375 -4.5 C 6.523438 -4.101562 6.609375 -3.675781 6.609375 -3.21875 C 6.609375 -2.757812 6.523438 -2.332031 6.359375 -1.9375 C 6.191406 -1.550781 5.957031 -1.210938 5.65625 -0.921875 C 5.351562 -0.628906 5 -0.398438 4.59375 -0.234375 C 4.1875 -0.078125 3.742188 0 3.265625 0 L 0.71875 0 Z M 3.28125 -1.3125 C 3.550781 -1.3125 3.796875 -1.359375 4.015625 -1.453125 C 4.242188 -1.554688 4.441406 -1.691406 4.609375 -1.859375 C 4.773438 -2.023438 4.898438 -2.222656 4.984375 -2.453125 C 5.078125 -2.691406 5.125 -2.945312 5.125 -3.21875 C 5.125 -3.488281 5.078125 -3.738281 4.984375 -3.96875 C 4.898438 -4.207031 4.773438 -4.410156 4.609375 -4.578125 C 4.441406 -4.742188 4.242188 -4.875 4.015625 -4.96875 C 3.796875 -5.070312 3.550781 -5.125 3.28125 -5.125 L 2.125 -5.125 L 2.125 -1.3125 Z M 3.28125 -1.3125 "/></g></g></g><g fill="#393536" fill-opacity="1"><g transform="translate(69.934144, 70.857781)"><g><path d="M 3.296875 0.140625 C 2.910156 0.140625 2.554688 0.0703125 2.234375 -0.0625 C 1.921875 -0.195312 1.644531 -0.382812 1.40625 -0.625 C 1.175781 -0.863281 0.992188 -1.148438 0.859375 -1.484375 C 0.734375 -1.828125 0.671875 -2.195312 0.671875 -2.59375 L 0.671875 -6.4375 L 2.078125 -6.4375 L 2.078125 -2.609375 C 2.078125 -2.179688 2.1875 -1.84375 2.40625 -1.59375 C 2.625 -1.351562 2.914062 -1.234375 3.28125 -1.234375 C 3.644531 -1.234375 3.9375 -1.351562 4.15625 -1.59375 C 4.382812 -1.84375 4.5 -2.179688 4.5 -2.609375 L 4.5 -6.4375 L 5.90625 -6.4375 L 5.90625 -2.59375 C 5.90625 -2.195312 5.835938 -1.828125 5.703125 -1.484375 C 5.578125 -1.148438 5.398438 -0.863281 5.171875 -0.625 C 4.941406 -0.382812 4.664062 -0.195312 4.34375 -0.0625 C 4.019531 0.0703125 3.671875 0.140625 3.296875 0.140625 Z M 3.296875 0.140625 "/></g></g></g><g fill="#393536" fill-opacity="1"><g transform="translate(32.620649, 84.298045)"><g><path d="M 0.71875 -6.546875 L 1.4375 -6.546875 L 4.09375 -3.0625 L 6.71875 -6.546875 L 7.4375 -6.546875 L 7.4375 0 L 6.03125 0 L 6.03125 -3.578125 L 4.359375 -1.359375 L 3.796875 -1.359375 L 2.125 -3.578125 L 2.125 0 L 0.71875 0 Z M 0.71875 -6.546875 "/></g></g></g><g fill="#393536" fill-opacity="1"><g transform="translate(42.56908, 84.298045)"><g><path d="M 2.640625 -6.546875 L 3.53125 -6.546875 L 6.0625 0 L 4.578125 0 L 4.1875 -1.078125 L 1.96875 -1.078125 L 1.578125 0 L 0.09375 0 Z M 3.75 -2.296875 L 3.078125 -4.1875 L 2.40625 -2.296875 Z M 3.75 -2.296875 "/></g></g></g><g fill="#393536" fill-opacity="1"><g transform="translate(50.52033, 84.298045)"><g><path d="M 0.71875 -6.4375 L 2.125 -6.4375 L 2.125 -3.921875 L 4.625 -3.921875 L 4.625 -6.4375 L 6.03125 -6.4375 L 6.03125 0 L 4.625 0 L 4.625 -2.609375 L 2.125 -2.609375 L 2.125 0 L 0.71875 0 Z M 0.71875 -6.4375 "/></g></g></g><g fill="#393536" fill-opacity="1"><g transform="translate(59.066888, 84.298045)"><g><path d="M 0.71875 -6.4375 L 4.40625 -6.4375 L 4.40625 -5.125 L 2.125 -5.125 L 2.125 -3.9375 L 3.78125 -3.9375 L 3.78125 -2.625 L 2.125 -2.625 L 2.125 -1.3125 L 4.453125 -1.3125 L 4.453125 0 L 0.71875 0 Z M 0.71875 -6.4375 "/></g></g></g><g fill="#393536" fill-opacity="1"><g transform="translate(65.789103, 84.298045)"><g><path d="M 2.453125 0.171875 C 1.953125 0.171875 1.503906 0.0625 1.109375 -0.15625 C 0.710938 -0.382812 0.390625 -0.710938 0.140625 -1.140625 L 1.125 -1.953125 C 1.457031 -1.359375 1.894531 -1.0625 2.4375 -1.0625 C 2.6875 -1.0625 2.882812 -1.117188 3.03125 -1.234375 C 3.175781 -1.347656 3.25 -1.503906 3.25 -1.703125 C 3.25 -1.878906 3.175781 -2.03125 3.03125 -2.15625 C 2.882812 -2.289062 2.617188 -2.441406 2.234375 -2.609375 C 1.640625 -2.867188 1.207031 -3.160156 0.9375 -3.484375 C 0.664062 -3.816406 0.53125 -4.207031 0.53125 -4.65625 C 0.53125 -4.9375 0.582031 -5.191406 0.6875 -5.421875 C 0.789062 -5.660156 0.929688 -5.863281 1.109375 -6.03125 C 1.296875 -6.207031 1.515625 -6.34375 1.765625 -6.4375 C 2.023438 -6.53125 2.3125 -6.578125 2.625 -6.578125 C 3.4375 -6.578125 4.125 -6.226562 4.6875 -5.53125 L 3.75 -4.6875 C 3.570312 -4.914062 3.394531 -5.085938 3.21875 -5.203125 C 3.039062 -5.316406 2.84375 -5.375 2.625 -5.375 C 2.414062 -5.375 2.25 -5.316406 2.125 -5.203125 C 2 -5.097656 1.9375 -4.957031 1.9375 -4.78125 C 1.9375 -4.582031 2.019531 -4.421875 2.1875 -4.296875 C 2.351562 -4.171875 2.601562 -4.03125 2.9375 -3.875 C 3.539062 -3.613281 3.976562 -3.316406 4.25 -2.984375 C 4.519531 -2.648438 4.65625 -2.257812 4.65625 -1.8125 C 4.65625 -1.519531 4.597656 -1.25 4.484375 -1 C 4.378906 -0.757812 4.226562 -0.550781 4.03125 -0.375 C 3.84375 -0.195312 3.613281 -0.0625 3.34375 0.03125 C 3.070312 0.125 2.773438 0.171875 2.453125 0.171875 Z M 2.453125 0.171875 "/></g></g></g><g fill="#393536" fill-opacity="1"><g transform="translate(72.60733, 84.298045)"><g><path d="M 0.71875 -6.4375 L 2.125 -6.4375 L 2.125 -3.921875 L 4.625 -3.921875 L 4.625 -6.4375 L 6.03125 -6.4375 L 6.03125 0 L 4.625 0 L 4.625 -2.609375 L 2.125 -2.609375 L 2.125 0 L 0.71875 0 Z M 0.71875 -6.4375 "/></g></g></g></svg>